<svg width="912" height="912" viewBox="0 0 912 912" fill="none" xmlns="http://www.w3.org/2000/svg">
<g clip-path="url(#clip0_420_3406)">
<path fill-rule="evenodd" clip-rule="evenodd" d="M625.448 693.041C625.448 687.939 621.124 683.803 615.793 683.803H596.362C591.031 683.803 586.707 687.939 586.707 693.041V749.366C586.707 754.468 591.031 758.603 596.362 758.603H615.793C621.124 758.603 625.448 754.468 625.448 749.366V693.041Z" fill="#EEEEEE"/>
<path fill-rule="evenodd" clip-rule="evenodd" d="M676.586 667.049C676.586 664.599 675.562 662.249 673.756 660.517C671.95 658.784 669.502 657.811 666.932 657.811H647.501C644.948 657.811 642.482 658.784 640.676 660.517C638.87 662.249 637.846 664.599 637.846 667.049V749.366C637.846 751.817 638.87 754.167 640.676 755.899C642.482 757.631 644.948 758.604 647.501 758.604H666.932C669.502 758.604 671.95 757.631 673.756 755.899C675.562 754.167 676.586 751.817 676.586 749.366V667.049Z" fill="#EEEEEE"/>
<path fill-rule="evenodd" clip-rule="evenodd" d="M727.726 586.115C727.726 583.666 726.702 581.318 724.896 579.585C723.09 577.852 720.641 576.877 718.071 576.877H698.64C696.088 576.877 693.622 577.852 691.816 579.585C690.01 581.318 688.985 583.666 688.985 586.115V749.361C688.985 751.814 690.01 754.162 691.816 755.895C693.622 757.627 696.088 758.6 698.64 758.6H718.071C720.641 758.6 723.09 757.627 724.896 755.895C726.702 754.162 727.726 751.814 727.726 749.361V586.115Z" fill="#EEEEEE"/>
<path fill-rule="evenodd" clip-rule="evenodd" d="M778.866 652.716C778.866 650.266 777.842 647.916 776.036 646.185C774.194 644.436 771.749 643.466 769.211 643.478H749.78C747.228 643.478 744.762 644.452 742.956 646.185C741.15 647.916 740.125 650.266 740.125 652.716V749.364C740.125 751.815 741.15 754.164 742.956 755.897C744.8 757.642 747.243 758.611 749.78 758.602H769.211C771.781 758.602 774.23 757.629 776.036 755.897C777.842 754.164 778.866 751.815 778.866 749.364V652.716Z" fill="#EEEEEE"/>
<path fill-rule="evenodd" clip-rule="evenodd" d="M830.007 633.081C830.007 630.629 828.982 628.28 827.176 626.547C825.37 624.814 822.922 623.841 820.352 623.841H800.921C798.368 623.841 795.902 624.814 794.097 626.547C792.291 628.28 791.266 630.629 791.266 633.081V749.365C791.266 751.815 792.291 754.166 794.097 755.899C795.902 757.632 798.368 758.603 800.921 758.603H820.352C822.922 758.603 825.37 757.632 827.176 755.899C828.982 754.166 830.007 751.815 830.007 749.365V633.081Z" fill="#EEEEEE"/>
<path fill-rule="evenodd" clip-rule="evenodd" d="M184.404 758.613C179.386 743.962 131.543 723.684 119.311 716.544C63.5265 683.931 4.80254 633.19 15.3271 561.29C31.1066 453.562 170.049 443.532 237.324 382.05C272.935 349.508 271.911 307.141 280.521 263.245C289.457 217.713 309.705 176.079 352.278 153.67C370.997 143.815 392.313 138.078 413.466 137.402C491.235 134.919 549.485 196.725 573.503 265.153C587.263 304.346 595.146 356.083 628.456 384.719C666.324 417.275 741.926 377.92 763.599 432.095C772.802 455.121 761.921 483.06 746.721 500.871C715.845 537.038 669.397 550.901 631.692 577.94C576.65 617.426 560.514 695.718 572.686 758.613H184.404Z" fill="#EEEEEE"/>
<path d="M791.441 370.214C858.053 370.214 912.052 316.215 912.052 249.604C912.052 182.992 858.053 128.993 791.441 128.993C724.83 128.993 670.831 182.992 670.831 249.604C670.831 316.215 724.83 370.214 791.441 370.214Z" fill="#EEEEEE"/>
<path fill-rule="evenodd" clip-rule="evenodd" d="M137.679 354.034L153.963 312.758C153.963 312.758 378.29 378.773 439.137 474.664C504.558 577.764 475.708 691.124 374.752 727.648C273.739 764.193 138.76 710.189 73.2949 607.02L89.6633 565.714L147.23 580.272C186.236 641.743 266.658 673.92 326.843 652.146C386.999 630.382 404.181 562.841 365.202 501.413C353.314 482.678 337.574 466.663 319.744 454.068C279.062 425.335 227.43 414.398 185.588 429.536L137.679 354.034Z" fill="#8C8C8C"/>
<mask id="mask0_420_3406" style="mask-type:luminance" maskUnits="userSpaceOnUse" x="73" y="312" width="402" height="428">
<path d="M137.678 354.033L153.962 312.757C153.962 312.757 378.29 378.772 439.137 474.663C504.558 577.763 475.707 691.123 374.751 727.647C273.739 764.192 138.759 710.188 73.2944 607.019L89.6628 565.713L147.229 580.271C186.235 641.742 266.657 673.919 326.842 652.145C386.999 630.381 404.18 562.84 365.202 501.412C353.314 482.677 337.574 466.662 319.743 454.067C279.061 425.334 227.429 414.397 185.587 429.535L137.678 354.033Z" fill="white"/>
</mask>
<g mask="url(#mask0_420_3406)">
<path fill-rule="evenodd" clip-rule="evenodd" d="M415.79 352.872L403.355 527.72L375.596 572.389L160.312 434.142L123.063 315.844L213.62 247.015L415.79 352.872Z" fill="#00FF96"/>
</g>
<path fill-rule="evenodd" clip-rule="evenodd" d="M154.057 312.724C255.069 276.179 390.048 330.183 455.515 433.355C520.936 536.455 492.085 649.814 391.129 686.338C290.117 722.883 155.137 668.879 89.6726 565.71L163.607 538.962C202.613 600.433 283.036 632.61 343.22 610.836C403.377 589.072 420.559 521.531 381.58 460.103C342.574 398.631 262.15 366.452 201.966 388.226L154.057 312.724Z" fill="#383D3F"/>
<mask id="mask1_420_3406" style="mask-type:luminance" maskUnits="userSpaceOnUse" x="89" y="301" width="402" height="397">
<path d="M154.056 312.724C255.068 276.179 390.048 330.183 455.514 433.355C520.935 536.455 492.085 649.814 391.129 686.338C290.116 722.883 155.137 668.879 89.6721 565.71L163.607 538.962C202.613 600.433 283.035 632.61 343.22 610.836C403.376 589.072 420.558 521.531 381.579 460.103C342.573 398.631 262.15 366.452 201.965 388.226L154.056 312.724Z" fill="white"/>
</mask>
<g mask="url(#mask1_420_3406)">
<path fill-rule="evenodd" clip-rule="evenodd" d="M543.501 541.534L392.252 528.102L175.9 414.776L123.063 315.842L295.25 158.673L543.501 541.534Z" fill="#00FF96"/>
</g>
<path fill-rule="evenodd" clip-rule="evenodd" d="M10.4252 543.8C-15.0635 467.814 7.48871 395.305 68.418 357.288L210.228 460.002L199.977 490.419C190.101 496.585 180.251 519.117 184.397 531.439L10.4252 543.8Z" fill="#001320"/>
<path fill-rule="evenodd" clip-rule="evenodd" d="M26.8036 502.493C1.31487 426.508 23.8671 353.999 84.7964 315.981L210.161 459.88C200.285 466.046 196.629 477.81 200.776 490.133L26.8036 502.493Z" fill="#393939"/>
<path fill-rule="evenodd" clip-rule="evenodd" d="M292.086 365.646C300.465 397.754 366.817 555.564 412.906 557.779C446.89 559.407 497.341 465.505 497.341 465.505C497.032 461.004 518.951 433.567 520.343 426.145C522.785 413.124 511.06 400.881 501.825 399.622C495.3 398.747 488.419 416.887 487.831 413.815C484.722 397.558 483.276 395.477 478.839 394.024C473.912 392.401 471.008 438.338 466.597 440.834L417.764 450.59C417.764 450.59 404.481 386.912 362.641 365.126C340.541 353.614 286.15 342.89 292.086 365.646Z" fill="#B5B5B5"/>
<mask id="mask2_420_3406" style="mask-type:luminance" maskUnits="userSpaceOnUse" x="291" y="352" width="230" height="206">
<path d="M292.087 365.644C300.466 397.752 366.818 555.562 412.907 557.777C446.891 559.405 497.342 465.503 497.342 465.503C497.033 461.002 518.952 433.566 520.344 426.143C522.786 413.122 511.061 400.879 501.826 399.62C495.301 398.745 488.42 416.885 487.832 413.813C484.723 397.556 483.277 395.475 478.84 394.022C473.913 392.399 471.009 438.336 466.598 440.832L417.765 450.588C417.765 450.588 404.482 386.91 362.642 365.124C340.542 353.612 286.151 342.888 292.087 365.644Z" fill="white"/>
</mask>
<g mask="url(#mask2_420_3406)">
<path fill-rule="evenodd" clip-rule="evenodd" d="M311.392 458.397C330.758 458.313 348.894 455.834 367.775 451.165C386.435 446.546 410.353 439.725 420.695 421.749C428.542 408.107 422.768 392.136 415.641 379.469C399.571 350.902 369.776 328.627 337.055 323.805C329.029 322.617 320.736 322.634 312.766 324.268C306.112 325.643 299.742 328.147 293.933 331.672C289.347 334.448 285.177 337.858 281.545 341.801C258.55 366.898 292.222 434.568 311.392 458.397Z" fill="#05DC7B"/>
</g>
<path fill-rule="evenodd" clip-rule="evenodd" d="M330.267 358.255C319.03 348.008 212.846 332.215 193.625 366.579C174.391 400.942 214.887 564.439 214.887 564.439L373.19 487.97C373.19 487.97 352.246 378.301 330.267 358.255Z" fill="#05DC7B"/>
<mask id="mask3_420_3406" style="mask-type:luminance" maskUnits="userSpaceOnUse" x="188" y="345" width="186" height="220">
<path d="M330.267 358.252C319.029 348.005 212.846 332.212 193.625 366.576C174.39 400.939 214.886 564.436 214.886 564.436L373.19 487.967C373.19 487.967 352.245 378.298 330.267 358.252Z" fill="white"/>
</mask>
<g mask="url(#mask3_420_3406)">
<path fill-rule="evenodd" clip-rule="evenodd" d="M193.556 485.59C201.81 487.006 254.454 428.687 254.454 428.687C254.454 428.687 264.276 447.616 261.437 474.483C260.81 480.421 263.236 487.688 269.823 489.434C278.836 491.831 298.002 472.923 310.532 469.133C330.754 463.022 347.18 463.036 346.585 476.216C345.892 491.226 319.331 507.785 308.485 516.258C286.265 533.6 259.192 546.599 233.984 559.027C225.45 563.237 213.002 570.532 203.097 566.964C188.042 561.538 187.299 535.716 187.679 522.994C188.042 510.345 190.436 497.817 193.556 485.59Z" fill="#00FF96"/>
</g>
<path fill-rule="evenodd" clip-rule="evenodd" d="M520.153 615.261C550.779 628.037 570.125 696.808 580.435 715.155C588.086 728.803 567.307 734.773 567.307 734.773C532.842 717.847 490.201 677.282 482.341 657.363C477.469 645.016 506.43 609.529 520.153 615.261Z" fill="#00FF96"/>
<mask id="mask4_420_3406" style="mask-type:luminance" maskUnits="userSpaceOnUse" x="481" y="614" width="102" height="121">
<path d="M520.152 615.26C550.778 628.036 570.124 696.807 580.434 715.154C588.085 728.802 567.306 734.772 567.306 734.772C532.841 717.846 490.2 677.281 482.34 657.362C477.468 645.015 506.429 609.528 520.152 615.26Z" fill="white"/>
</mask>
<g mask="url(#mask4_420_3406)">
<path fill-rule="evenodd" clip-rule="evenodd" d="M576.572 698.555C563.763 708.596 525.476 710.05 504.618 645.086C501.308 634.759 503.981 623.372 507.102 610.492C509.244 601.717 488.415 625.567 485.245 631.577C476.715 647.793 478.294 663.538 481.947 676.379C489.759 703.884 510.727 726.14 535.26 737.225C546.08 742.103 559.656 746.208 574.39 741.744C595.121 735.45 605.685 713.234 606.58 695.247C608.106 664.555 594.941 714.918 576.572 698.555Z" fill="#05DC7B"/>
</g>
<path fill-rule="evenodd" clip-rule="evenodd" d="M440.703 625.262C475.219 631.807 513.069 696.397 528.401 712.589C539.788 724.638 520.239 734.777 520.239 734.777C480.263 721.943 426.645 693.075 413.388 674.822C405.171 663.508 425.235 622.322 440.703 625.262Z" fill="#00FF96"/>
<mask id="mask5_420_3406" style="mask-type:luminance" maskUnits="userSpaceOnUse" x="411" y="625" width="121" height="110">
<path d="M440.705 625.262C475.221 631.807 513.07 696.397 528.403 712.589C539.789 724.638 520.241 734.777 520.241 734.777C480.264 721.943 426.647 693.075 413.389 674.822C405.172 663.508 425.237 622.322 440.705 625.262Z" fill="white"/>
</mask>
<g mask="url(#mask5_420_3406)">
<path fill-rule="evenodd" clip-rule="evenodd" d="M520.087 696.835C509.718 709.42 471.175 718.592 432.794 658.1C426.7 648.482 426.407 636.602 426.176 623.144C426.034 613.973 411.16 641.929 409.526 648.553C405.141 666.425 410.908 681.788 418.017 693.84C433.231 719.658 460.433 737.593 488.307 743.684C500.598 746.358 515.486 747.708 529.286 740.289C548.701 729.839 553.568 705.581 549.723 687.486C543.161 656.61 543.09 709.425 520.087 696.835Z" fill="#05DC7B"/>
</g>
<path fill-rule="evenodd" clip-rule="evenodd" d="M359.364 614.917C251.332 618.304 270.636 544.423 294.366 518.867C318.095 493.312 454.296 442.084 501.742 461.585C549.187 481.086 579.039 635.873 579.039 635.873C553.103 652.286 530.077 672.133 471.725 635.873L436.826 592.824C436.826 592.824 391.642 613.905 359.364 614.917Z" fill="black"/>
<path fill-rule="evenodd" clip-rule="evenodd" d="M305.925 617.267C197.894 620.655 210.896 544.814 233.371 518.867C255.846 492.92 390.985 440.577 440.747 461.585C490.509 482.591 531.957 644.908 531.957 644.908C506.035 661.319 465.29 689.566 406.924 653.303L386.986 608.368C386.986 608.368 338.19 616.255 305.925 617.267Z" fill="#393939"/>
<mask id="mask6_420_3406" style="mask-type:luminance" maskUnits="userSpaceOnUse" x="217" y="456" width="315" height="215">
<path d="M305.925 617.267C197.894 620.655 210.896 544.814 233.371 518.867C255.846 492.92 390.985 440.577 440.747 461.585C490.509 482.591 531.957 644.908 531.957 644.908C506.035 661.319 465.29 689.566 406.924 653.303L386.986 608.368C386.986 608.368 338.19 616.255 305.925 617.267Z" fill="white"/>
</mask>
<g mask="url(#mask6_420_3406)">
<path fill-rule="evenodd" clip-rule="evenodd" d="M323.31 461.132C300.066 476.324 279.167 499.15 267.694 524.511C261.107 539.06 259.324 555.479 277.665 561.417C281.627 562.696 285.869 563.335 289.996 563.554C301.007 564.137 312.266 561.496 322.996 559.356C335.014 556.958 347.676 554.982 359.413 551.35C365.339 549.511 369.862 545.828 374.518 541.876C375.459 541.077 378.364 537.683 379.85 538.358C382.062 539.363 382.243 547.159 382.937 549.197C385.231 556.119 390.167 562.197 395.747 566.76C412.057 580.066 433.93 582.804 450.521 595.209C470.495 610.152 482.711 629.714 504.964 643.435C554.389 673.925 578.062 659.788 585.144 659.828C601.619 659.943 607.199 650.149 600.711 660.934C594.207 671.73 580.802 677.986 569.213 681.453C541.414 689.724 509.619 685.217 482.711 675.939C463.562 669.336 444.611 662.337 424.851 657.64C398.405 651.351 371.282 648.214 344.225 646.015C301.305 642.527 252.936 644.658 212.92 626.496C204.336 622.6 196.264 617.399 189.33 611.002C184.774 606.805 180.68 602.013 177.494 596.698C155.241 559.65 273.373 470.084 323.31 461.132Z" fill="black"/>
</g>
<path fill-rule="evenodd" clip-rule="evenodd" d="M516.069 398.24C518.356 389.458 512.759 383.594 503.583 385.14L378.43 406.228C369.254 407.775 359.946 416.15 357.659 424.932L338.834 497.193C336.547 505.975 342.145 511.837 351.321 510.291L476.474 489.203C485.65 487.656 494.957 479.283 497.244 470.501L516.069 398.24Z" fill="#383D3F"/>
<path fill-rule="evenodd" clip-rule="evenodd" d="M519.881 402.182C522.169 393.401 516.571 387.537 507.395 389.083L382.242 410.171C373.066 411.717 363.759 420.093 361.471 428.874L342.647 501.135C340.359 509.917 345.957 515.779 355.133 514.233L480.287 493.145C489.462 491.599 498.769 483.225 501.057 474.444L519.881 402.182Z" fill="#00FF96"/>
<path fill-rule="evenodd" clip-rule="evenodd" d="M192.558 368.163C180.595 399.116 142.226 565.952 178.335 594.682C204.961 615.861 321.736 526.227 321.736 526.227C324.114 522.393 357.933 512.937 363.4 507.727C372.991 498.588 370.629 481.8 363.871 475.383C359.088 470.86 342.903 481.559 344.221 478.722C351.197 463.713 351.24 461.179 348.496 457.396C345.438 453.211 316.24 488.793 311.203 488.241L244.911 510.534C244.911 510.534 271.341 451.098 250.117 408.969C238.91 386.713 201.037 346.228 192.558 368.163Z" fill="#B5B5B5"/>
<mask id="mask7_420_3406" style="mask-type:luminance" maskUnits="userSpaceOnUse" x="163" y="361" width="207" height="237">
<path d="M192.557 368.163C180.594 399.116 142.225 565.952 178.334 594.682C204.96 615.861 321.735 526.227 321.735 526.227C324.113 522.393 357.932 512.937 363.399 507.727C372.99 498.588 370.628 481.8 363.87 475.383C359.087 470.86 342.902 481.559 344.22 478.722C351.196 463.713 351.239 461.179 348.495 457.396C345.437 453.211 316.239 488.793 311.202 488.241L244.91 510.534C244.91 510.534 271.34 451.098 250.116 408.969C238.909 386.713 201.036 346.228 192.557 368.163Z" fill="white"/>
</mask>
<g mask="url(#mask7_420_3406)">
<path fill-rule="evenodd" clip-rule="evenodd" d="M224.796 482.996C224.289 488.401 192.621 479.345 180.362 524.18C175.33 542.595 179.086 563.896 188.091 571.757C200.242 582.375 220.44 573.877 233.186 569.03C257.549 559.783 282.66 547.713 303.083 531.323C308.324 527.113 312.916 522.218 317.018 516.909C318.9 514.47 320.834 509.846 323.511 508.236C326.016 506.737 328.782 510.404 330.848 511.456C334.584 513.338 337.554 513.353 341.611 512.381C351.523 510.037 360.842 505.732 367.075 497.425C369.691 493.95 371.271 489.884 373.783 486.36C374.741 485.005 376.791 483.506 377.533 485.898C379.02 490.729 376.587 497.441 375.049 501.937C369.46 518.248 356.53 531.817 343.934 543.057C312.272 571.294 271.748 592.261 231.403 604.809C211.397 611.043 188.203 615.364 167.609 609.241C128.921 597.761 126.518 547.554 130.978 514.485C132.014 506.784 133.593 499.179 135.718 491.717C138.036 483.57 141.042 475.614 144.903 468.072C153.926 450.454 170.519 432.772 192.136 435.132C197.265 435.706 220.169 480.78 224.796 482.996Z" fill="#8C8C8C"/>
<path fill-rule="evenodd" clip-rule="evenodd" d="M154.026 454.714C169.791 465.962 185.956 474.548 204.007 481.792C221.85 488.947 245.245 497.387 264.142 488.843C278.481 482.357 283.128 466.023 284.746 451.579C288.397 419.006 277.234 383.519 253.498 360.487C247.679 354.833 240.94 350.001 233.518 346.67C227.314 343.897 220.682 342.207 213.908 341.673C208.564 341.246 203.187 341.576 197.936 342.654C164.61 349.584 152.393 424.175 154.026 454.714Z" fill="#05DC7B"/>
</g>
<path fill-rule="evenodd" clip-rule="evenodd" d="M277.517 314.981L250.555 316.663C252.533 327.212 251.399 336.953 247.459 345.961C270.157 383.26 284.635 384.682 285.64 345.89C273.853 338.644 275.199 324.56 277.517 314.981Z" fill="#B5B5B5"/>
<mask id="mask8_420_3406" style="mask-type:luminance" maskUnits="userSpaceOnUse" x="247" y="314" width="39" height="61">
<path d="M277.519 314.982L250.557 316.664C252.535 327.213 251.4 336.954 247.46 345.962C270.158 383.261 284.636 384.683 285.641 345.891C273.855 338.645 275.2 324.561 277.519 314.982Z" fill="white"/>
</mask>
<g mask="url(#mask8_420_3406)">
<path fill-rule="evenodd" clip-rule="evenodd" d="M280.706 328.83C278.116 333.378 274.64 337.595 270.582 340.915C267.538 343.404 264.163 345.764 260.623 347.454C257.345 349.02 253.574 350.229 249.913 349.653C242.413 348.48 238.742 340.115 239.13 333.239C239.954 318.767 254.422 306.785 268.731 310.846C273.154 312.101 277.579 325.497 280.706 328.83Z" fill="#8C8C8C"/>
</g>
<path fill-rule="evenodd" clip-rule="evenodd" d="M261.673 272.393C274.911 272.393 285.65 284.868 285.65 300.235C285.65 315.603 283.918 333.351 270.68 333.351C257.441 333.351 237.695 315.603 237.695 300.235C237.695 284.868 248.434 272.393 261.673 272.393Z" fill="#B5B5B5"/>
<path fill-rule="evenodd" clip-rule="evenodd" d="M253.003 292.543C253.963 291.282 258.275 294.182 260.561 294.512C268.957 295.718 278.278 293.964 284.771 288.221C287.703 285.622 288.174 281.278 287.79 277.219C286.883 267.537 276.41 260.392 267.089 261.139C256.477 261.989 249.897 271.004 242.618 277.555C238.726 281.054 234.118 284.252 231.971 289.207C228.48 297.275 234.851 303.735 238.988 309.913C240.401 312.024 242.269 316.003 245.201 316.216C247.278 316.366 247.139 314.129 246.982 312.663C246.702 310.243 245.132 303.471 248.902 302.696C251.642 302.13 252.829 306.403 253.51 308.226C253.806 309.011 254.295 310.666 255.43 310.465C256.355 310.301 256.704 309.06 256.774 308.273C256.948 306.077 255.936 303.904 254.854 302.062C253.964 300.586 252.061 293.801 253.003 292.543Z" fill="#001320"/>
<path fill-rule="evenodd" clip-rule="evenodd" d="M873.376 207.312C873.376 200.698 870.749 194.354 866.058 189.678C861.397 185.001 855.043 182.373 848.438 182.373H607.069C600.449 182.373 594.11 185.001 589.434 189.678C584.758 194.354 582.131 200.698 582.131 207.312V519.124C582.131 525.738 584.758 532.081 589.434 536.758C594.11 541.435 600.449 544.063 607.069 544.063H848.438C855.043 544.063 861.397 541.435 866.058 536.758C870.749 532.081 873.376 525.738 873.376 519.124V207.312Z" fill="#383D3F"/>
<path fill-rule="evenodd" clip-rule="evenodd" d="M777.24 220.049C741.717 220.049 712.904 248.85 712.904 284.378C712.904 319.881 741.732 348.706 777.24 348.706C812.762 348.706 841.56 319.905 841.56 284.378H809.407C809.407 302.141 795.008 316.541 777.24 316.541C759.486 316.541 745.072 302.129 745.072 284.378C745.072 266.614 759.471 252.213 777.24 252.213V220.049Z" fill="white"/>
<path fill-rule="evenodd" clip-rule="evenodd" d="M839.615 268.655C836.775 257.39 830.938 247.105 822.724 238.891C814.509 230.676 804.224 224.839 792.96 221.999L785.107 253.188C790.738 254.609 795.88 257.527 799.986 261.635C804.092 265.742 807.009 270.884 808.427 276.516L839.615 268.655Z" fill="#00FF96"/>
<path fill-rule="evenodd" clip-rule="evenodd" d="M653.625 258.604C653.625 253.441 649.441 249.257 644.272 249.257H616.776C611.621 249.257 607.437 253.441 607.437 258.604V259.308C607.437 264.469 611.621 268.654 616.776 268.654H644.272C649.441 268.654 653.625 264.469 653.625 259.308V258.604Z" fill="white"/>
<path fill-rule="evenodd" clip-rule="evenodd" d="M694.795 291.076C694.795 288.034 692.33 285.569 689.29 285.568H612.942C609.903 285.569 607.438 288.034 607.438 291.076C607.438 294.118 609.903 296.585 612.942 296.585H689.29C692.33 296.585 694.795 294.118 694.795 291.076Z" fill="white"/>
<path fill-rule="evenodd" clip-rule="evenodd" d="M694.795 307.419C694.795 304.377 692.33 301.912 689.29 301.911H612.942C609.903 301.912 607.438 304.377 607.438 307.419C607.438 310.461 609.903 312.927 612.942 312.927H689.29C692.33 312.927 694.795 310.461 694.795 307.419Z" fill="white"/>
<path fill-rule="evenodd" clip-rule="evenodd" d="M694.795 384.162C694.795 381.683 693.809 379.305 692.056 377.553C690.303 375.8 687.921 374.814 685.456 374.814H616.776C611.628 374.814 607.438 378.999 607.438 384.162V384.866C607.438 387.343 608.424 389.721 610.176 391.474C611.929 393.226 614.312 394.212 616.776 394.212H685.456C690.605 394.212 694.795 390.027 694.795 384.866V384.162Z" fill="white"/>
<path fill-rule="evenodd" clip-rule="evenodd" d="M835.147 431.31C835.147 429.801 834.576 428.353 833.505 427.286C832.435 426.218 830.936 425.618 829.437 425.618H613.149C611.65 425.618 610.151 426.218 609.081 427.286C608.081 428.353 607.438 429.801 607.438 431.31V431.316C607.438 432.825 608.081 434.273 609.081 435.34C610.151 436.408 611.65 437.007 613.149 437.007H829.437C830.936 437.007 832.435 436.408 833.505 435.34C834.576 434.273 835.147 432.825 835.147 431.316V431.31Z" fill="white"/>
<path fill-rule="evenodd" clip-rule="evenodd" d="M835.147 454.311C835.147 452.802 834.576 451.354 833.505 450.287C832.435 449.219 830.936 448.619 829.437 448.619H613.149C611.65 448.619 610.151 449.219 609.081 450.287C608.081 451.354 607.438 452.802 607.438 454.311V454.317C607.438 455.826 608.081 457.274 609.081 458.341C610.151 459.408 611.65 460.008 613.149 460.008H829.437C830.936 460.008 832.435 459.408 833.505 458.341C834.576 457.274 835.147 455.826 835.147 454.317V454.311Z" fill="white"/>
<path fill-rule="evenodd" clip-rule="evenodd" d="M835.147 477.313C835.147 475.804 834.576 474.356 833.505 473.288C832.435 472.221 830.936 471.621 829.437 471.621H613.149C611.65 471.621 610.151 472.221 609.081 473.288C608.081 474.356 607.438 475.804 607.438 477.313V477.319C607.438 478.828 608.081 480.276 609.081 481.343C610.151 482.41 611.65 483.01 613.149 483.01H829.437C830.936 483.01 832.435 482.41 833.505 481.343C834.576 480.276 835.147 478.828 835.147 477.319V477.313Z" fill="white"/>
<path fill-rule="evenodd" clip-rule="evenodd" d="M486.271 119.238L485.976 221.481L513.543 221.56L458.17 304.424L403.275 221.242L430.842 221.322L431.136 119.079L486.271 119.238Z" fill="#00FF96"/>
<path d="M486.182 242.291C486.17 246.494 485.024 249.903 482.757 252.515C480.483 255.128 477.506 256.429 473.841 256.419C470.117 256.408 467.126 255.105 464.867 252.511C462.608 249.916 461.489 246.407 461.502 241.984L461.511 238.596C461.524 234.361 462.663 230.961 464.937 228.394C467.21 225.829 470.18 224.551 473.853 224.562C477.547 224.573 480.531 225.875 482.804 228.469C485.078 231.064 486.205 234.558 486.192 238.949L486.182 242.291ZM478.694 238.646C478.7 236.763 478.252 235.248 477.359 234.1C476.466 232.953 475.287 232.377 473.83 232.373C472.373 232.369 471.212 232.946 470.349 234.104C469.486 235.262 469.052 236.814 469.046 238.759L469.036 242.241C469.031 244.123 469.456 245.646 470.313 246.809C471.169 247.972 472.355 248.556 473.864 248.56C475.292 248.564 476.452 247.995 477.344 246.853C478.23 245.711 478.679 244.12 478.685 242.08L478.694 238.646ZM459.113 203.673C459.1 207.909 457.947 211.317 455.644 213.899C453.348 216.48 450.378 217.765 446.728 217.755C443.033 217.744 440.049 216.457 437.776 213.894C435.509 211.33 434.383 207.806 434.396 203.32L434.405 199.932C434.418 195.728 435.542 192.336 437.787 189.754C440.039 187.173 443.023 185.887 446.746 185.898C450.492 185.909 453.498 187.22 455.757 189.829C458.008 192.439 459.135 195.894 459.123 200.191L459.113 203.673ZM451.625 199.982C451.63 198.256 451.168 196.781 450.231 195.554C449.295 194.328 448.13 193.713 446.724 193.709C443.547 193.7 441.952 195.813 441.94 200.048L441.93 203.624C441.924 205.506 442.364 207.021 443.243 208.169C444.121 209.316 445.293 209.892 446.75 209.896C448.215 209.901 449.383 209.331 450.275 208.189C451.16 207.047 451.609 205.487 451.615 203.51L451.625 199.982ZM471.724 192.04L477.215 195.632L449.297 249.102L443.799 245.51L471.724 192.04Z" fill="white"/>
<path fill-rule="evenodd" clip-rule="evenodd" d="M166.329 756.929H845.982V761.392H166.329V756.929Z" fill="black"/>
<path fill-rule="evenodd" clip-rule="evenodd" d="M70.8193 757.488H143.64V762.232H70.8193V757.488Z" fill="black"/>
<path fill-rule="evenodd" clip-rule="evenodd" d="M790.314 757.582C789.86 758.453 788.825 758.832 787.917 758.466C787.478 758.288 787.121 757.953 786.915 757.526C786.71 757.099 786.671 756.611 786.806 756.157C787.626 753.115 788.623 750.125 789.608 747.197C796.914 725.429 807.438 705.882 826.089 691.845C835.15 685.028 847.44 678.644 859.189 680.255C864.754 681.015 870.962 684.228 870.685 690.66C870.205 702.16 856.413 711.145 847.983 716.735C831.515 727.663 803.766 739.31 790.314 757.582Z" fill="#383D3F"/>
<mask id="mask9_420_3406" style="mask-type:luminance" maskUnits="userSpaceOnUse" x="786" y="680" width="85" height="79">
<path d="M790.315 757.584C789.86 758.455 788.826 758.834 787.917 758.468C787.478 758.29 787.121 757.955 786.916 757.528C786.711 757.101 786.672 756.613 786.807 756.158C787.627 753.117 788.624 750.127 789.608 747.199C796.914 725.431 807.439 705.884 826.09 691.847C835.15 685.03 847.441 678.646 859.189 680.256C864.754 681.017 870.963 684.23 870.685 690.662C870.206 702.162 856.413 711.147 847.984 716.737C831.516 727.665 803.767 739.312 790.315 757.584Z" fill="white"/>
</mask>
<g mask="url(#mask9_420_3406)">
<path fill-rule="evenodd" clip-rule="evenodd" d="M865.63 674.34C867.207 678.27 866.54 682.924 865.721 686.942C864.994 690.565 863.978 694.249 862.113 697.464C855.351 709.077 841.13 713.959 828.546 715.87C822.86 716.734 813.748 717.31 809.291 712.64C806.228 709.426 808.442 706.333 808.624 702.725C808.67 701.77 807.911 701.542 807.108 701.785C802.757 703.058 799.027 709.259 796.692 712.701C789.688 723.086 785.215 735.655 783.365 748.011C782.713 752.363 781.743 758.442 784.548 762.293C788.065 767.13 796.071 763.43 800.149 761.52C801.332 760.959 802.514 760.368 803.681 759.761C805.031 759.064 806.38 758.336 807.699 757.608C809.776 756.471 811.808 755.258 813.824 754.045C826.151 746.677 885.052 716.067 892.814 701.588C900.91 686.472 879.624 679.467 865.63 674.34Z" fill="#1A1A1B"/>
</g>
<path fill-rule="evenodd" clip-rule="evenodd" d="M772.981 756.306C773.259 756.813 773.715 757.199 774.262 757.389C774.808 757.58 775.405 757.561 775.938 757.338C776.472 757.114 776.903 756.7 777.15 756.177C777.397 755.654 777.441 755.058 777.274 754.504C776.472 751.52 775.486 748.592 774.529 745.72C766.379 721.437 754.638 699.632 733.832 683.972C723.725 676.368 710.014 669.246 696.908 671.042C690.7 671.891 683.774 675.475 684.084 682.65C684.619 695.479 700.005 705.502 709.408 711.738C727.469 723.732 757.721 736.5 772.981 756.306Z" fill="#383D3F"/>
<mask id="mask10_420_3406" style="mask-type:luminance" maskUnits="userSpaceOnUse" x="684" y="670" width="94" height="88">
<path d="M772.981 756.306C773.26 756.813 773.716 757.199 774.262 757.389C774.808 757.58 775.406 757.561 775.939 757.338C776.472 757.114 776.904 756.7 777.151 756.177C777.397 755.654 777.441 755.058 777.275 754.504C776.472 751.52 775.487 748.592 774.53 745.72C766.379 721.437 754.639 699.632 733.833 683.972C723.725 676.368 710.014 669.246 696.908 671.042C690.7 671.891 683.775 675.475 684.084 682.65C684.619 695.479 700.005 705.502 709.409 711.738C727.47 723.732 757.721 736.5 772.981 756.306Z" fill="white"/>
</mask>
<g mask="url(#mask10_420_3406)">
<path fill-rule="evenodd" clip-rule="evenodd" d="M689.722 664.441C687.963 668.825 688.707 674.018 689.621 678.499C690.432 682.542 691.566 686.652 693.646 690.237C701.189 703.193 717.054 708.639 731.091 710.77C737.434 711.734 747.599 712.376 752.571 707.167C755.988 703.582 753.518 700.131 753.315 696.106C753.264 695.041 754.11 694.787 755.007 695.057C759.861 696.478 764.021 703.396 766.626 707.235C774.44 718.82 779.429 732.841 781.492 746.625C782.22 751.479 783.302 758.262 780.173 762.558C776.249 767.953 767.319 763.826 762.77 761.695C761.45 761.069 760.131 760.41 758.829 759.733C757.324 758.955 755.818 758.143 754.347 757.331C752.03 756.063 749.763 754.71 747.514 753.357C733.764 745.137 668.056 710.99 659.397 694.838C650.365 677.975 674.111 670.161 689.722 664.441Z" fill="#1A1A1B"/>
</g>
<path fill-rule="evenodd" clip-rule="evenodd" d="M779.727 755.667C779.589 756.481 780.108 757.25 780.899 757.458C781.69 757.665 782.515 757.223 782.777 756.446C784.988 749.878 786.662 743.097 788.278 736.508C795.964 705.208 798.167 674.123 786.595 643.468C780.971 628.579 771.192 611.777 756.051 604.861C748.88 601.583 739.105 600.73 734.603 608.565C726.533 622.562 736.14 643.576 741.937 656.537C754.138 683.85 781.26 721.999 779.727 755.667Z" fill="#383D3F"/>
<mask id="mask11_420_3406" style="mask-type:luminance" maskUnits="userSpaceOnUse" x="731" y="602" width="64" height="156">
<path d="M779.728 755.666C779.589 756.48 780.109 757.249 780.9 757.457C781.691 757.664 782.516 757.222 782.778 756.445C784.988 749.877 786.663 743.096 788.278 736.507C795.965 705.207 798.168 674.122 786.595 643.467C780.972 628.578 771.192 611.776 756.051 604.86C748.881 601.582 739.105 600.729 734.603 608.564C726.534 622.561 736.14 643.575 741.937 656.536C754.138 683.849 781.261 721.998 779.728 755.666Z" fill="white"/>
</mask>
<g mask="url(#mask11_420_3406)">
<path fill-rule="evenodd" clip-rule="evenodd" d="M752.857 593.007C748.035 596.482 745.33 602.502 743.283 607.882C741.424 612.725 739.861 617.857 739.658 623.069C738.953 641.92 752.15 658.391 765.637 670.109C771.73 675.404 782.102 682.932 790.895 680.743C796.941 679.232 796.64 673.901 799.134 669.486C799.798 668.319 800.868 668.619 801.638 669.51C805.841 674.289 805.606 684.443 805.79 690.278C806.295 707.855 802.158 726.118 795.07 742.16C792.574 747.81 789.158 755.748 782.939 758.208C775.135 761.301 768.422 750.901 765.02 745.572C764.039 744.019 763.081 742.429 762.153 740.833C761.076 738.993 760.023 737.116 759.005 735.262C757.396 732.354 755.898 729.389 754.418 726.436C745.337 708.44 698.483 627.898 700.154 604.898C701.908 580.892 732.411 588.575 752.857 593.007Z" fill="#1A1A1B"/>
</g>
</g>
<defs>
<clipPath id="clip0_420_3406">
<rect width="912" height="912" fill="white"/>
</clipPath>
</defs>
</svg>
