<svg width="880" height="880" viewBox="0 0 880 880" fill="none" xmlns="http://www.w3.org/2000/svg">
<path fill-rule="evenodd" clip-rule="evenodd" d="M150.982 248.657C85.4866 248.657 32.4053 301.739 32.4053 367.22C32.4053 395.297 42.3717 422.472 60.5269 443.891L128.368 386.395C123.825 381.039 121.331 374.243 121.331 367.22C121.331 350.857 134.605 337.582 150.982 337.582V248.657ZM76.4673 459.467C97.5663 476.502 123.865 485.794 150.982 485.796C214.409 485.796 266.601 435.877 269.428 372.509L210.198 369.871C208.784 401.548 182.688 426.508 150.982 426.508C137.417 426.508 124.274 421.86 113.725 413.35L76.4673 459.467ZM267.636 346.019C258.806 297.426 220.776 259.396 172.183 250.566L164.65 292.005C195.977 297.702 220.499 322.225 226.196 353.552L267.636 346.019Z" fill="#EEEEEE"/>
<path fill-rule="evenodd" clip-rule="evenodd" d="M94.6334 697C71.9246 677.622 46.9808 665.465 31.3626 636.249C5.03519 586.985 10.8221 514.629 62.1865 495.698C91.7998 484.785 120.801 508.901 149.976 513.11C201.207 520.497 265.569 491.554 301.209 445.36C367.26 359.768 283.449 244.114 342.329 153.843C346.68 147.168 351.961 141.204 357.908 136.795C405.068 101.822 444.459 178.7 490.622 174.013C525.105 170.51 539.379 116.874 570.349 102.246C627.966 75.0261 702.266 117.321 709.317 197.788C712.39 232.895 696.386 264.999 700.643 299.934C700.629 299.929 700.616 299.924 700.616 299.92C726.797 364.723 802.746 331.82 828.741 397.5C869.144 499.617 766.122 525.706 734.659 590.305C719.427 621.592 735.271 660.811 731.307 695.426L94.6334 697Z" fill="#EEEEEE"/>
<path d="M725.664 191.384C725.664 180.245 728.677 171.202 734.664 164.261C740.67 157.319 748.55 153.848 758.264 153.848C768.133 153.848 776.07 157.278 782.076 164.135C788.083 170.995 791.076 180.287 791.076 192.008V200.988C791.076 212.211 788.083 221.233 782.076 228.051C776.07 234.867 768.21 238.276 758.476 238.276C748.685 238.276 740.767 234.846 734.722 227.988C728.677 221.128 725.664 211.878 725.664 200.241V191.384ZM745.537 200.988C745.537 205.977 746.734 209.989 749.11 213.023C751.485 216.057 754.614 217.575 758.476 217.575C762.339 217.575 765.41 216.037 767.688 212.96C769.967 209.884 771.107 205.767 771.107 200.613V191.384C771.107 186.398 769.967 182.365 767.688 179.289C765.41 176.212 762.262 174.674 758.264 174.674C754.479 174.674 751.408 176.191 749.052 179.226C746.715 182.26 745.537 186.479 745.537 191.885V200.988ZM797.7 293.523C797.7 282.298 800.732 273.257 806.816 266.397C812.88 259.54 820.74 256.11 830.416 256.11C840.208 256.11 848.126 259.498 854.171 266.274C860.196 273.05 863.209 282.381 863.209 294.27V303.25C863.209 314.391 860.254 323.39 854.325 330.25C848.377 337.108 840.478 340.538 830.609 340.538C820.682 340.538 812.706 337.087 806.7 330.187C800.713 323.288 797.7 314.14 797.7 302.752V293.523ZM817.573 303.25C817.573 307.822 818.809 311.729 821.3 314.973C823.792 318.215 826.882 319.837 830.609 319.837C839.03 319.837 843.239 314.224 843.239 303.001V293.523C843.239 288.534 842.062 284.522 839.725 281.488C837.388 278.453 834.279 276.936 830.416 276.936C826.534 276.936 823.444 278.453 821.088 281.488C818.751 284.522 817.573 288.66 817.573 293.898V303.25ZM764.367 324.451L749.786 314.973L823.367 173.052L837.967 182.53L764.367 324.451Z" fill="#EEEEEE"/>
<path fill-rule="evenodd" clip-rule="evenodd" d="M704.26 694.884C705.052 684.628 708.476 674.416 711.72 664.728C720.377 638.937 732.847 615.777 754.945 599.145C765.68 591.068 780.242 583.505 794.162 585.412C800.755 586.314 808.111 590.121 807.783 597.741C807.214 611.366 790.873 622.012 780.885 628.635C756.485 644.827 711.182 662.365 704.26 694.884Z" fill="#383D3F"/>
<mask id="mask0_418_2769" style="mask-type:luminance" maskUnits="userSpaceOnUse" x="704" y="585" width="104" height="110">
<path d="M704.261 694.884C705.053 684.628 708.477 674.416 711.721 664.728C720.378 638.937 732.848 615.777 754.946 599.145C765.681 591.068 780.243 583.505 794.163 585.412C800.756 586.314 808.112 590.121 807.784 597.741C807.215 611.366 790.874 622.012 780.886 628.635C756.486 644.827 711.183 662.365 704.261 694.884Z" fill="white"/>
</mask>
<g mask="url(#mask0_418_2769)">
<path fill-rule="evenodd" clip-rule="evenodd" d="M801.794 578.404C803.663 583.06 802.872 588.575 801.902 593.335C801.04 597.629 799.836 601.994 797.627 605.802C789.615 619.562 772.766 625.346 757.856 627.61C751.12 628.634 740.324 629.316 735.042 623.783C731.414 619.975 734.037 616.311 734.252 612.035C734.306 610.904 733.408 610.634 732.456 610.922C727.3 612.431 722.881 619.777 720.115 623.855C711.816 636.16 706.517 651.052 704.325 665.692C703.553 670.847 702.403 678.051 705.726 682.614C709.894 688.344 719.378 683.961 724.211 681.697C725.612 681.033 727.013 680.332 728.396 679.614C729.995 678.787 731.594 677.925 733.156 677.063C735.617 675.715 738.024 674.278 740.414 672.841C755.018 664.111 824.806 627.843 834.003 610.688C843.595 592.779 818.375 584.48 801.794 578.404Z" fill="black"/>
</g>
<path fill-rule="evenodd" clip-rule="evenodd" d="M734.824 564.002C740.49 558.585 747.627 554.533 754.396 550.686C772.426 540.456 791.281 533.658 812.278 535.461C822.478 536.339 834.587 539.454 841.515 547.617C844.797 551.482 847.035 557.383 842.972 561.54C835.719 568.982 821.033 566.709 811.997 565.387C789.916 562.164 755.292 549.072 734.824 564.002Z" fill="#383D3F"/>
<mask id="mask1_418_2769" style="mask-type:luminance" maskUnits="userSpaceOnUse" x="734" y="535" width="112" height="32">
<path d="M734.824 564.001C740.49 558.584 747.627 554.532 754.396 550.685C772.426 540.455 791.281 533.657 812.278 535.46C822.478 536.338 834.587 539.453 841.515 547.616C844.797 551.481 847.035 557.382 842.972 561.539C835.719 568.981 821.033 566.708 811.997 565.386C789.916 562.163 755.292 549.071 734.824 564.001Z" fill="white"/>
</mask>
<g mask="url(#mask1_418_2769)">
<path fill-rule="evenodd" clip-rule="evenodd" d="M849.408 547.521C848.1 551.113 844.847 553.84 841.875 556.047C839.202 558.045 836.299 559.909 833.108 560.946C821.564 564.678 809.061 559.39 799.451 553.09C795.108 550.245 788.635 545.141 788.453 539.316C788.331 535.309 791.683 534.564 793.98 532.248C794.586 531.633 794.213 531.024 793.527 530.702C789.834 528.936 783.59 530.857 779.946 531.764C768.979 534.524 758.398 540.278 749.708 547.47C746.647 550.002 742.331 553.505 741.896 557.784C741.346 563.155 748.957 565.492 752.85 566.666C753.983 567.001 755.134 567.316 756.284 567.612C757.612 567.957 758.957 568.281 760.283 568.586C762.364 569.074 764.461 569.483 766.547 569.882C779.274 572.357 837.318 587.276 851.262 582.221C865.814 576.938 855.726 559.401 849.408 547.521Z" fill="black"/>
</g>
<path fill-rule="evenodd" clip-rule="evenodd" d="M709.246 596.779C706.842 590.402 706.03 583.314 705.256 576.59C703.209 558.685 704.189 541.288 712.778 525.104C716.952 517.244 723.566 508.618 732.453 505.854C736.663 504.544 742.145 504.763 744.087 509.428C747.572 517.762 740.755 528.737 736.622 535.516C726.528 552.082 704.27 575.324 709.246 596.779Z" fill="#383D3F"/>
<mask id="mask2_418_2769" style="mask-type:luminance" maskUnits="userSpaceOnUse" x="704" y="505" width="42" height="92">
<path d="M709.246 596.779C706.842 590.402 706.03 583.314 705.256 576.59C703.209 558.685 704.189 541.288 712.778 525.104C716.952 517.244 723.566 508.618 732.453 505.854C736.663 504.544 742.145 504.763 744.087 509.428C747.572 517.762 740.755 528.737 736.622 535.516C726.528 552.082 704.27 575.324 709.246 596.779Z" fill="white"/>
</mask>
<g mask="url(#mask2_418_2769)">
<path fill-rule="evenodd" clip-rule="evenodd" d="M735.064 499.505C737.493 501.775 738.567 505.305 739.321 508.434C740.009 511.252 740.513 514.209 740.256 517.114C739.312 527.62 730.826 535.821 722.516 541.365C718.762 543.87 712.475 547.311 707.753 545.474C704.507 544.208 705.052 541.273 703.981 538.647C703.695 537.953 703.081 538.043 702.59 538.483C699.921 540.836 699.332 546.485 698.817 549.708C697.292 559.421 698.293 569.844 701.089 579.244C702.073 582.554 703.405 587.199 706.68 589.003C710.79 591.272 715.25 585.979 717.514 583.264C718.168 582.472 718.812 581.658 719.44 580.839C720.167 579.894 720.885 578.928 721.58 577.972C722.679 576.472 723.719 574.934 724.749 573.401C731.061 564.063 762.752 522.708 763.454 509.833C764.181 496.394 746.718 498.495 735.064 499.505Z" fill="black"/>
</g>
<path fill-rule="evenodd" clip-rule="evenodd" d="M696.757 694.885C695.964 684.629 692.541 674.417 689.296 664.728C680.639 638.937 668.17 615.778 646.072 599.146C635.337 591.069 620.774 583.506 606.855 585.413C600.261 586.315 592.905 590.122 593.234 597.742C593.802 611.367 610.144 622.013 620.131 628.636C644.532 644.828 689.834 662.366 696.757 694.885Z" fill="#383D3F"/>
<mask id="mask3_418_2769" style="mask-type:luminance" maskUnits="userSpaceOnUse" x="593" y="585" width="104" height="110">
<path d="M696.757 694.885C695.964 684.629 692.541 674.417 689.296 664.728C680.639 638.937 668.17 615.778 646.072 599.146C635.337 591.069 620.774 583.506 606.855 585.413C600.261 586.315 592.905 590.122 593.234 597.742C593.802 611.367 610.144 622.013 620.131 628.636C644.532 644.828 689.834 662.366 696.757 694.885Z" fill="white"/>
</mask>
<g mask="url(#mask3_418_2769)">
<path fill-rule="evenodd" clip-rule="evenodd" d="M599.224 578.405C597.356 583.061 598.146 588.576 599.116 593.336C599.979 597.63 601.182 601.995 603.392 605.803C611.403 619.563 628.253 625.347 643.163 627.611C649.899 628.635 660.695 629.317 665.976 623.784C669.605 619.976 666.982 616.312 666.766 612.036C666.713 610.905 667.611 610.635 668.563 610.923C673.718 612.432 678.137 619.778 680.904 623.856C689.203 636.161 694.502 651.053 696.694 665.693C697.466 670.848 698.616 678.052 695.292 682.615C691.125 688.345 681.64 683.962 676.808 681.698C675.407 681.034 674.006 680.333 672.623 679.615C671.024 678.788 669.425 677.926 667.862 677.064C665.401 675.716 662.994 674.279 660.605 672.842C646.001 664.112 576.213 627.844 567.016 610.689C557.423 592.78 582.644 584.48 599.224 578.405Z" fill="black"/>
</g>
<path fill-rule="evenodd" clip-rule="evenodd" d="M707.512 689.809C706.997 670.493 705.787 649.71 708.008 629.776C710.13 610.904 715.327 592.784 727.763 577.733C741.23 561.409 760.429 551.17 777.625 539.264C796.765 526.001 813.525 510.82 819.971 485.79C821.934 478.245 822.668 470.401 821.914 462.643C821.101 454.373 818.364 446.397 814.695 438.941C812.93 435.348 808.566 433.872 804.976 435.643C801.386 437.414 799.899 441.77 801.684 445.361C804.579 451.254 806.821 457.533 807.475 464.071C808.07 470.136 807.455 476.265 805.928 482.164C800.414 503.487 785.678 516.036 769.354 527.335C751.087 539.99 730.877 551.145 716.557 568.489C688.73 602.22 691.903 649.247 692.994 690.195C693.113 694.209 696.445 697.374 700.452 697.258C704.458 697.162 707.611 693.823 707.512 689.809Z" fill="#383D3F"/>
<mask id="mask4_418_2769" style="mask-type:luminance" maskUnits="userSpaceOnUse" x="692" y="434" width="131" height="264">
<path d="M707.512 689.808C706.997 670.492 705.787 649.709 708.008 629.775C710.13 610.903 715.327 592.783 727.763 577.732C741.23 561.408 760.429 551.169 777.625 539.263C796.765 526 813.525 510.819 819.971 485.789C821.934 478.244 822.668 470.4 821.914 462.642C821.101 454.372 818.364 446.396 814.695 438.94C812.93 435.347 808.566 433.871 804.976 435.642C801.386 437.413 799.899 441.769 801.684 445.36C804.579 451.253 806.821 457.533 807.475 464.07C808.07 470.135 807.455 476.264 805.928 482.163C800.414 503.486 785.678 516.035 769.354 527.334C751.087 539.989 730.877 551.144 716.557 568.488C688.73 602.219 691.903 649.246 692.994 690.194C693.113 694.208 696.445 697.373 700.452 697.257C704.458 697.161 707.611 693.822 707.512 689.808Z" fill="white"/>
</mask>
<g mask="url(#mask4_418_2769)">
<path fill-rule="evenodd" clip-rule="evenodd" d="M782.688 425.375C793.701 434.393 797.926 489.848 805.88 501.442C807.767 504.218 810.671 515.077 814.466 515.699C817.4 516.174 819.913 511.911 821.157 509.932C825.593 502.932 828.039 494.435 830.16 486.514C835.679 466.086 838.721 441.479 832.514 420.896C831.479 417.419 830.074 413.916 828.122 410.845C819.549 397.455 803.917 404.194 794.52 412.582C790.181 416.467 786.338 420.834 782.688 425.375Z" fill="black"/>
</g>
<path d="M794.185 480.942C831.803 480.942 862.299 450.447 862.299 412.829C862.299 375.211 831.803 344.716 794.185 344.716C756.567 344.716 726.072 375.211 726.072 412.829C726.072 450.447 756.567 480.942 794.185 480.942Z" fill="#00CC70"/>
<mask id="mask5_418_2769" style="mask-type:luminance" maskUnits="userSpaceOnUse" x="726" y="344" width="137" height="137">
<path d="M794.185 480.942C831.803 480.942 862.299 450.447 862.299 412.829C862.299 375.211 831.803 344.716 794.185 344.716C756.567 344.716 726.072 375.211 726.072 412.829C726.072 450.447 756.567 480.942 794.185 480.942Z" fill="white"/>
</mask>
<g mask="url(#mask5_418_2769)">
<path fill-rule="evenodd" clip-rule="evenodd" d="M849.713 359.461C856.503 392.981 854.329 433.488 823.719 454.847C817.87 458.901 811.486 462.124 804.75 464.421C787.829 470.206 767.53 470.116 751.291 462.248C746.513 459.948 741.968 457.02 738.106 453.374C735.681 451.092 733.274 447.284 730.256 445.793C727.256 444.302 726.43 448.111 726.609 450.266C727.256 458.386 732.753 466.433 737.693 472.541C756.698 496.055 788.08 502.953 816.426 493.792C865.305 478.002 890.885 404.082 849.713 359.461Z" fill="#017842"/>
</g>
<path fill-rule="evenodd" clip-rule="evenodd" d="M841.226 311.986L843.918 329.301L861.239 331.991L843.918 334.68L841.226 351.994L838.534 334.68L821.229 331.991L838.534 329.301L841.226 311.986Z" fill="#00CC70"/>
<path fill-rule="evenodd" clip-rule="evenodd" d="M868.251 300.241L869.831 310.406L880 311.986L869.831 313.564L868.251 323.729L866.67 313.564L856.511 311.986L866.67 310.406L868.251 300.241Z" fill="#00CC70"/>
<path fill-rule="evenodd" clip-rule="evenodd" d="M868.251 344.418L869.831 354.583L880 356.162L869.831 357.741L868.251 367.906L866.67 357.741L856.511 356.162L866.67 354.583L868.251 344.418Z" fill="#00CC70"/>
<path d="M810.445 422.191C809.188 420.014 807.586 418.629 805.631 418.041C803.684 417.448 800.947 417.444 797.42 418.029C793.901 418.609 790.779 418.969 788.063 419.103C785.339 419.242 782.828 419.046 780.522 418.519C778.233 417.995 776.075 417.009 774.182 415.621C772.254 414.221 770.543 412.218 769.04 409.615C766.45 405.128 765.761 400.623 766.974 396.099C768.187 391.575 771.026 387.707 775.506 384.482L770.585 375.96L776.954 372.283L781.943 380.925C787.031 378.873 791.84 378.707 796.371 380.428C800.901 382.149 804.665 385.596 807.654 390.773L796.143 397.419C794.304 394.233 792.267 392.232 790.047 391.407C787.819 390.587 785.602 390.814 783.402 392.084C781.225 393.341 779.894 394.932 779.411 396.857C778.927 398.783 779.317 400.832 780.574 403.009C781.739 405.027 783.254 406.312 785.133 406.855C787.005 407.404 789.896 407.398 793.805 406.841C797.714 406.283 801.016 405.979 803.711 405.927C806.406 405.875 808.865 406.155 811.098 406.76C813.286 407.35 815.336 408.369 817.128 409.757C818.922 411.147 820.515 413.049 821.91 415.465C824.516 419.979 825.22 424.459 824.036 428.895C822.844 433.335 819.923 437.234 815.28 440.588L819.856 448.513L813.524 452.169L808.971 444.282C803.187 446.843 797.858 447.345 792.978 445.791C788.097 444.236 784.086 440.738 780.943 435.295L792.454 428.649C794.278 431.808 796.428 433.797 798.902 434.617C801.377 435.436 804.018 435.035 806.835 433.409C809.168 432.062 810.655 430.381 811.302 428.36C811.942 426.345 811.656 424.289 810.445 422.191Z" fill="white"/>
<path fill-rule="evenodd" clip-rule="evenodd" d="M85.583 695.293H757.614V699.292H85.583V695.293Z" fill="black"/>
<path fill-rule="evenodd" clip-rule="evenodd" d="M0 695.796H65.2471V700.046H0V695.796Z" fill="black"/>
<path fill-rule="evenodd" clip-rule="evenodd" d="M428.705 286.675C416.86 308.57 387.448 421.512 387.448 421.512C387.448 421.512 266.993 384.262 230.516 389.857C208.251 393.269 201.936 432.508 253.481 461.407C305.054 490.316 390.842 508.479 425.097 484.017C461.39 458.083 458.538 290.123 458.538 290.123C458.538 290.123 433.475 277.866 428.705 286.675Z" fill="#8C8C8C"/>
<mask id="mask6_418_2769" style="mask-type:luminance" maskUnits="userSpaceOnUse" x="213" y="283" width="246" height="213">
<path d="M428.706 286.675C416.861 308.57 387.449 421.512 387.449 421.512C387.449 421.512 266.994 384.262 230.516 389.857C208.252 393.269 201.937 432.508 253.482 461.407C305.055 490.316 390.843 508.479 425.098 484.017C461.391 458.083 458.539 290.123 458.539 290.123C458.539 290.123 433.476 277.866 428.706 286.675Z" fill="white"/>
</mask>
<g mask="url(#mask6_418_2769)">
<path fill-rule="evenodd" clip-rule="evenodd" d="M463.231 436.49C456.607 444.393 444.916 449.269 435.845 453.396C406.385 466.801 370.966 470.716 339.616 461.714C324.6 457.4 312.005 449.739 298.584 442.056C293.956 439.406 287.718 436.3 283.169 440.798C277.197 446.692 277.53 458.161 278.727 465.662C282.318 488.315 299.542 507.102 321.155 514.078C364.728 528.152 431.416 466.342 463.231 436.49Z" fill="#B5B5B5"/>
<path fill-rule="evenodd" clip-rule="evenodd" d="M278.174 488.353C278.41 475.139 289.46 461.867 300.085 455.424C307.487 450.933 317.123 447.464 322.433 440.261C329.37 430.849 320.124 421.463 322.28 411.581C323.081 407.93 325.982 405.484 327.665 402.281C330.712 396.466 328.55 391.053 324.968 386.124C305.795 359.813 259.571 361.714 229.074 376.585C214.431 383.728 200.004 394.443 201.707 412.541C202.729 423.334 209.245 432.977 216.018 441.069C228.507 455.995 262.358 477.216 278.174 488.353Z" fill="#00FF96"/>
<path fill-rule="evenodd" clip-rule="evenodd" d="M311.3 449.226C305.634 446.323 290.685 436.897 285.218 431.869C282.478 429.353 279.951 426.626 277.517 423.816C277.092 423.327 275.868 421.37 275.003 421.908C274.059 422.49 274.671 425.062 274.777 425.875C275.309 430.123 276.028 434.359 276.746 438.579C278.528 449.081 281.215 467.356 292.307 460.869C297.388 457.893 305.581 454.206 311.3 449.226Z" fill="#05DC7B"/>
</g>
<path fill-rule="evenodd" clip-rule="evenodd" d="M318.209 652.758C298.043 671.608 330.275 698.434 330.275 698.434C362.475 699.502 392.831 700.631 427.32 704.176C434.303 703.996 413.649 657.631 393.246 662.883C349.392 674.193 327.566 644.013 318.209 652.758Z" fill="#00CC70"/>
<mask id="mask7_418_2769" style="mask-type:luminance" maskUnits="userSpaceOnUse" x="311" y="651" width="118" height="54">
<path d="M318.209 652.759C298.043 671.609 330.275 698.435 330.275 698.435C362.475 699.503 392.831 700.632 427.32 704.177C434.303 703.997 413.649 657.632 393.246 662.884C349.392 674.194 327.566 644.014 318.209 652.759Z" fill="white"/>
</mask>
<g mask="url(#mask7_418_2769)">
<path fill-rule="evenodd" clip-rule="evenodd" d="M308.39 650.13C309.893 658.35 314.814 667.421 321.504 672.502C331.107 679.79 344.953 682.809 356.604 684.844C366.3 686.534 379.015 687.239 387.009 680.322C394.457 673.858 393.659 663.258 389.336 655.251C381.689 641.046 365.462 632.215 349.754 630.659C338.741 629.555 318.511 645.688 308.39 650.13Z" fill="#017842"/>
</g>
<path fill-rule="evenodd" clip-rule="evenodd" d="M202.591 577.353C245.368 607.138 311.894 578.66 311.894 578.66L316.124 657.719C336.545 672.553 369.363 676.613 401.436 661.422C401.436 661.422 399.688 551.357 376.573 515.641C336.546 453.814 216.628 475.586 216.628 475.586C216.628 475.586 183.548 564.088 202.591 577.353Z" fill="black"/>
<mask id="mask8_418_2769" style="mask-type:luminance" maskUnits="userSpaceOnUse" x="196" y="471" width="206" height="201">
<path d="M202.59 577.353C245.367 607.138 311.893 578.66 311.893 578.66L316.123 657.719C336.544 672.553 369.362 676.613 401.435 661.422C401.435 661.422 399.687 551.357 376.572 515.641C336.545 453.814 216.627 475.586 216.627 475.586C216.627 475.586 183.547 564.088 202.59 577.353Z" fill="white"/>
</mask>
<g mask="url(#mask8_418_2769)">
<path fill-rule="evenodd" clip-rule="evenodd" d="M348.371 477.024C341.481 480.12 335.057 484.574 329.245 489.352C324.656 493.111 320.639 497.058 317.607 502.184C315.226 506.223 313.657 510.598 312.659 515.169C310.305 525.921 312.074 535.887 319.788 543.982C329.019 553.69 341.255 556.841 341.907 572.398C342.505 586.846 337.783 601.106 334.059 614.862C331.133 625.702 328.38 638.005 332.53 648.911C334.671 654.511 338.794 659.192 344.513 661.267C351.656 663.874 361.352 663.289 363.999 672.253C367.031 682.468 352.347 686.392 345.085 686.378C324.124 686.325 306.727 668.104 293.945 653.566C262.051 617.31 229.798 568.243 242.406 517.953C250.4 486.092 277.2 449.114 313.949 451.71C320.373 452.163 342.439 474.626 348.371 477.024Z" fill="black"/>
</g>
<path fill-rule="evenodd" clip-rule="evenodd" d="M686.055 326.428C686.055 320.016 683.509 313.867 678.985 309.334C674.446 304.8 668.303 302.253 661.883 302.253H388.663C382.257 302.253 376.113 304.8 371.575 309.334C367.037 313.867 364.491 320.016 364.491 326.428V681.786C364.491 688.193 367.037 694.331 371.575 698.871C376.113 703.411 382.257 705.958 388.663 705.958H661.883C668.303 705.958 674.446 703.411 678.985 698.871C683.509 694.331 686.055 688.193 686.055 681.786V326.428Z" fill="black"/>
<path fill-rule="evenodd" clip-rule="evenodd" d="M667.384 334.497C667.384 328.086 664.838 321.937 660.314 317.403C655.776 312.869 649.632 310.322 643.212 310.322H369.992C363.586 310.322 357.443 312.869 352.904 317.403C348.366 321.937 345.82 328.086 345.82 334.497V689.855C345.82 696.262 348.366 702.4 352.904 706.94C357.443 711.48 363.586 714.027 369.992 714.027H643.212C649.632 714.027 655.776 711.48 660.314 706.94C664.838 702.4 667.384 696.262 667.384 689.855V334.497Z" fill="#383D3F"/>
<path fill-rule="evenodd" clip-rule="evenodd" d="M656.209 358.681C656.209 345.33 645.395 334.507 632.043 334.507H381.164C367.813 334.507 356.985 345.33 356.985 358.681V386.132C356.985 399.484 367.813 410.308 381.164 410.308H632.043C645.395 410.308 656.209 399.484 656.209 386.132V358.681Z" fill="white"/>
<path fill-rule="evenodd" clip-rule="evenodd" d="M424.958 459.849C424.958 453.004 419.411 447.456 412.564 447.456H389.922C383.075 447.456 377.528 453.004 377.528 459.849V482.488C377.528 489.332 383.075 494.88 389.922 494.88H412.564C419.411 494.88 424.958 489.332 424.958 482.488V459.849Z" fill="black"/>
<path fill-rule="evenodd" clip-rule="evenodd" d="M424.958 526.938C424.958 520.093 419.411 514.545 412.564 514.545H389.922C383.075 514.545 377.528 520.093 377.528 526.938V549.576C377.528 556.421 383.075 561.969 389.922 561.969H412.564C419.411 561.969 424.958 556.421 424.958 549.576V526.938Z" fill="black"/>
<path fill-rule="evenodd" clip-rule="evenodd" d="M424.958 594.025C424.958 587.181 419.411 581.633 412.564 581.633H389.922C383.075 581.633 377.528 587.181 377.528 594.025V616.664C377.528 623.509 383.075 629.057 389.922 629.057H412.564C419.411 629.057 424.958 623.509 424.958 616.664V594.025Z" fill="black"/>
<path fill-rule="evenodd" clip-rule="evenodd" d="M424.958 661.117C424.958 654.273 419.411 648.725 412.564 648.725H389.922C383.075 648.725 377.528 654.273 377.528 661.117V683.756C377.528 690.601 383.075 696.149 389.922 696.149H412.564C419.411 696.149 424.958 690.601 424.958 683.756V661.117Z" fill="black"/>
<path fill-rule="evenodd" clip-rule="evenodd" d="M498.363 459.849C498.363 453.004 492.816 447.456 485.969 447.456H463.327C456.48 447.456 450.934 453.004 450.934 459.849V482.488C450.934 489.332 456.48 494.88 463.327 494.88H485.969C492.816 494.88 498.363 489.332 498.363 482.488V459.849Z" fill="black"/>
<path fill-rule="evenodd" clip-rule="evenodd" d="M498.363 526.938C498.363 520.093 492.816 514.545 485.969 514.545H463.327C456.48 514.545 450.934 520.093 450.934 526.938V549.576C450.934 556.421 456.48 561.969 463.327 561.969H485.969C492.816 561.969 498.363 556.421 498.363 549.576V526.938Z" fill="black"/>
<path fill-rule="evenodd" clip-rule="evenodd" d="M498.363 594.025C498.363 587.181 492.816 581.633 485.969 581.633H463.327C456.48 581.633 450.934 587.181 450.934 594.025V616.664C450.934 623.509 456.48 629.057 463.327 629.057H485.969C492.816 629.057 498.363 623.509 498.363 616.664V594.025Z" fill="black"/>
<path fill-rule="evenodd" clip-rule="evenodd" d="M498.363 661.117C498.363 654.273 492.816 648.725 485.969 648.725H463.327C456.48 648.725 450.934 654.273 450.934 661.117V683.756C450.934 690.601 456.48 696.149 463.327 696.149H485.969C492.816 696.149 498.363 690.601 498.363 683.756V661.117Z" fill="black"/>
<path fill-rule="evenodd" clip-rule="evenodd" d="M571.771 459.849C571.771 453.004 566.225 447.456 559.378 447.456H536.735C529.889 447.456 524.342 453.004 524.342 459.849V482.488C524.342 489.332 529.889 494.88 536.735 494.88H559.378C566.225 494.88 571.771 489.332 571.771 482.488V459.849Z" fill="black"/>
<path fill-rule="evenodd" clip-rule="evenodd" d="M571.771 526.938C571.771 520.093 566.225 514.545 559.378 514.545H536.735C529.889 514.545 524.342 520.093 524.342 526.938V549.576C524.342 556.421 529.889 561.969 536.735 561.969H559.378C566.225 561.969 571.771 556.421 571.771 549.576V526.938Z" fill="black"/>
<path fill-rule="evenodd" clip-rule="evenodd" d="M571.771 594.025C571.771 587.181 566.225 581.633 559.378 581.633H536.735C529.889 581.633 524.342 587.181 524.342 594.025V616.664C524.342 623.509 529.889 629.057 536.735 629.057H559.378C566.225 629.057 571.771 623.509 571.771 616.664V594.025Z" fill="black"/>
<path fill-rule="evenodd" clip-rule="evenodd" d="M571.771 661.117C571.771 654.273 566.225 648.725 559.378 648.725H536.735C529.889 648.725 524.342 654.273 524.342 661.117V683.756C524.342 690.601 529.889 696.149 536.735 696.149H559.378C566.225 696.149 571.771 690.601 571.771 683.756V661.117Z" fill="black"/>
<path fill-rule="evenodd" clip-rule="evenodd" d="M645.18 459.849C645.18 453.004 639.633 447.456 632.786 447.456H610.144C603.297 447.456 597.75 453.004 597.75 459.849V482.488C597.75 489.332 603.297 494.88 610.144 494.88H632.786C639.633 494.88 645.18 489.332 645.18 482.488V459.849Z" fill="black"/>
<path fill-rule="evenodd" clip-rule="evenodd" d="M645.18 526.938C645.18 520.093 639.633 514.545 632.786 514.545H610.144C603.297 514.545 597.75 520.093 597.75 526.938V549.576C597.75 556.421 603.297 561.969 610.144 561.969H632.786C639.633 561.969 645.18 556.421 645.18 549.576V526.938Z" fill="black"/>
<path fill-rule="evenodd" clip-rule="evenodd" d="M645.18 593.555C645.18 586.71 639.633 581.163 632.786 581.163H610.144C603.297 581.163 597.75 586.71 597.75 593.555V683.748C597.75 690.593 603.297 696.14 610.144 696.14H632.786C639.633 696.14 645.18 690.593 645.18 683.748V593.555Z" fill="black"/>
<path fill-rule="evenodd" clip-rule="evenodd" d="M420.05 452.666C420.05 445.821 414.503 440.273 407.656 440.273H385.014C378.167 440.273 372.62 445.821 372.62 452.666V475.305C372.62 482.15 378.167 487.698 385.014 487.698H407.656C414.503 487.698 420.05 482.15 420.05 475.305V452.666Z" fill="white"/>
<path fill-rule="evenodd" clip-rule="evenodd" d="M420.05 519.754C420.05 512.909 414.503 507.361 407.656 507.361H385.014C378.167 507.361 372.62 512.909 372.62 519.754V542.393C372.62 549.238 378.167 554.785 385.014 554.785H407.656C414.503 554.785 420.05 549.238 420.05 542.393V519.754Z" fill="white"/>
<path fill-rule="evenodd" clip-rule="evenodd" d="M420.05 586.843C420.05 579.998 414.503 574.45 407.656 574.45H385.014C378.167 574.45 372.62 579.998 372.62 586.843V609.482C372.62 616.326 378.167 621.874 385.014 621.874H407.656C414.503 621.874 420.05 616.326 420.05 609.482V586.843Z" fill="white"/>
<path fill-rule="evenodd" clip-rule="evenodd" d="M420.05 653.932C420.05 647.087 414.503 641.539 407.656 641.539H385.014C378.167 641.539 372.62 647.087 372.62 653.932V676.571C372.62 683.415 378.167 688.963 385.014 688.963H407.656C414.503 688.963 420.05 683.415 420.05 676.571V653.932Z" fill="white"/>
<path fill-rule="evenodd" clip-rule="evenodd" d="M493.458 452.666C493.458 445.821 487.911 440.273 481.064 440.273H458.422C451.575 440.273 446.028 445.821 446.028 452.666V475.305C446.028 482.15 451.575 487.698 458.422 487.698H481.064C487.911 487.698 493.458 482.15 493.458 475.305V452.666Z" fill="white"/>
<path fill-rule="evenodd" clip-rule="evenodd" d="M493.458 519.754C493.458 512.909 487.911 507.361 481.064 507.361H458.422C451.575 507.361 446.028 512.909 446.028 519.754V542.393C446.028 549.238 451.575 554.785 458.422 554.785H481.064C487.911 554.785 493.458 549.238 493.458 542.393V519.754Z" fill="white"/>
<path fill-rule="evenodd" clip-rule="evenodd" d="M493.458 586.843C493.458 579.998 487.911 574.45 481.064 574.45H458.422C451.575 574.45 446.028 579.998 446.028 586.843V609.482C446.028 616.326 451.575 621.874 458.422 621.874H481.064C487.911 621.874 493.458 616.326 493.458 609.482V586.843Z" fill="white"/>
<path fill-rule="evenodd" clip-rule="evenodd" d="M493.458 653.932C493.458 647.087 487.911 641.539 481.064 641.539H458.422C451.575 641.539 446.028 647.087 446.028 653.932V676.571C446.028 683.415 451.575 688.963 458.422 688.963H481.064C487.911 688.963 493.458 683.415 493.458 676.571V653.932Z" fill="white"/>
<path fill-rule="evenodd" clip-rule="evenodd" d="M566.865 452.666C566.865 445.821 561.318 440.273 554.471 440.273H531.829C524.982 440.273 519.436 445.821 519.436 452.666V475.305C519.436 482.15 524.982 487.698 531.829 487.698H554.471C561.318 487.698 566.865 482.15 566.865 475.305V452.666Z" fill="white"/>
<path fill-rule="evenodd" clip-rule="evenodd" d="M566.865 519.754C566.865 512.909 561.318 507.361 554.471 507.361H531.829C524.982 507.361 519.436 512.909 519.436 519.754V542.393C519.436 549.238 524.982 554.785 531.829 554.785H554.471C561.318 554.785 566.865 549.238 566.865 542.393V519.754Z" fill="white"/>
<path fill-rule="evenodd" clip-rule="evenodd" d="M566.865 586.843C566.865 579.998 561.318 574.45 554.471 574.45H531.829C524.982 574.45 519.436 579.998 519.436 586.843V609.482C519.436 616.326 524.982 621.874 531.829 621.874H554.471C561.318 621.874 566.865 616.326 566.865 609.482V586.843Z" fill="white"/>
<path fill-rule="evenodd" clip-rule="evenodd" d="M566.865 653.932C566.865 647.087 561.318 641.539 554.471 641.539H531.829C524.982 641.539 519.436 647.087 519.436 653.932V676.571C519.436 683.415 524.982 688.963 531.829 688.963H554.471C561.318 688.963 566.865 683.415 566.865 676.571V653.932Z" fill="white"/>
<path fill-rule="evenodd" clip-rule="evenodd" d="M640.271 452.666C640.271 445.821 634.725 440.273 627.878 440.273H605.235C598.389 440.273 592.842 445.821 592.842 452.666V475.305C592.842 482.15 598.389 487.698 605.235 487.698H627.878C634.725 487.698 640.271 482.15 640.271 475.305V452.666Z" fill="white"/>
<path fill-rule="evenodd" clip-rule="evenodd" d="M640.271 519.754C640.271 512.909 634.725 507.361 627.878 507.361H605.235C598.389 507.361 592.842 512.909 592.842 519.754V542.393C592.842 549.238 598.389 554.785 605.235 554.785H627.878C634.725 554.785 640.271 549.238 640.271 542.393V519.754Z" fill="white"/>
<path fill-rule="evenodd" clip-rule="evenodd" d="M640.271 586.838C640.271 583.552 638.96 580.4 636.642 578.075C634.313 575.752 631.16 574.446 627.878 574.446H605.235C601.953 574.446 598.8 575.752 596.471 578.075C594.153 580.4 592.842 583.552 592.842 586.838V676.567C592.842 679.852 594.153 683.004 596.471 685.33C598.8 687.653 601.953 688.958 605.235 688.958H627.878C631.16 688.958 634.313 687.653 636.642 685.33C638.96 683.004 640.271 679.852 640.271 676.567V586.838Z" fill="white"/>
<path d="M543.99 375.569C543.99 380.793 542.91 384.789 540.746 387.557C538.582 390.324 535.42 391.708 531.251 391.708C527.131 391.708 523.984 390.35 521.805 387.635C519.627 384.918 518.508 381.026 518.455 375.958V369.004C518.455 363.728 519.549 359.724 521.738 356.991C523.926 354.257 527.083 352.891 531.198 352.891C535.314 352.891 538.461 354.244 540.644 356.951C542.823 359.659 543.937 363.547 543.99 368.615V375.569ZM536.49 367.94C536.49 364.809 536.064 362.53 535.207 361.103C534.35 359.676 533.014 358.963 531.198 358.963C529.431 358.963 528.133 359.641 527.291 360.999C526.453 362.357 526.008 364.481 525.955 367.37V376.555C525.955 379.634 526.376 381.922 527.214 383.418C528.056 384.914 529.397 385.663 531.251 385.663C533.082 385.663 534.408 384.945 535.222 383.509C536.035 382.073 536.456 379.876 536.49 376.918V367.94ZM549.751 387.505C549.751 386.311 550.153 385.343 550.957 384.598C551.761 383.855 552.768 383.483 553.978 383.483C555.208 383.483 556.225 383.855 557.028 384.598C557.832 385.343 558.234 386.311 558.234 387.505C558.234 388.681 557.837 389.637 557.043 390.372C556.244 391.107 555.227 391.475 553.978 391.475C552.753 391.475 551.741 391.107 550.942 390.372C550.148 389.637 549.751 388.681 549.751 387.505ZM589.918 375.569C589.918 380.793 588.838 384.789 586.674 387.557C584.509 390.324 581.348 391.708 577.174 391.708C573.059 391.708 569.912 390.35 567.733 387.635C565.55 384.918 564.436 381.026 564.383 375.958V369.004C564.383 363.728 565.477 359.724 567.665 356.991C569.854 354.257 573.006 352.891 577.126 352.891C581.241 352.891 584.388 354.244 586.572 356.951C588.751 359.659 589.864 363.547 589.918 368.615V375.569ZM582.418 367.94C582.418 364.809 581.992 362.53 581.135 361.103C580.278 359.676 578.942 358.963 577.126 358.963C575.359 358.963 574.056 359.641 573.219 360.999C572.381 362.357 571.936 364.481 571.882 367.37V376.555C571.882 379.634 572.304 381.922 573.141 383.418C573.979 384.914 575.325 385.663 577.174 385.663C579.009 385.663 580.336 384.945 581.144 383.509C581.958 382.073 582.384 379.876 582.418 376.918V367.94ZM617.161 376.97H621.441V383.016H617.161V391.189H609.662V383.016H594.173L593.834 378.293L609.584 353.41H617.161V376.97ZM601.31 376.97H609.662V363.633L609.168 364.489L601.31 376.97Z" fill="black"/>
<path fill-rule="evenodd" clip-rule="evenodd" d="M110.592 604.707C97.5177 580.395 63.349 604.707 63.349 604.707C54.0919 635.565 45.247 664.626 33.0106 697.066C31.4013 703.863 81.5041 695.736 81.6371 674.668C81.9031 629.38 116.657 615.987 110.592 604.707Z" fill="#00CC70"/>
<mask id="mask9_418_2769" style="mask-type:luminance" maskUnits="userSpaceOnUse" x="32" y="593" width="80" height="107">
<path d="M110.592 604.707C97.5177 580.395 63.349 604.707 63.349 604.707C54.0919 635.565 45.247 664.626 33.0106 697.066C31.4013 703.863 81.5041 695.736 81.6371 674.668C81.9031 629.38 116.657 615.987 110.592 604.707Z" fill="white"/>
</mask>
<g mask="url(#mask9_418_2769)">
<path fill-rule="evenodd" clip-rule="evenodd" d="M121.336 595.595C100.218 596.547 76.6848 613.05 69.9464 634.344C66.2848 645.889 69.3108 658.99 61.2756 668.819C58.4913 672.237 54.7025 674.924 50.4815 675.948C47.837 676.586 45.1416 676.294 42.5734 677.331C37.3225 679.446 33.0253 684.58 31.0165 689.98C30.1646 692.281 29.5671 694.728 29.6052 697.215C29.8595 712.604 47.1758 714.972 58.453 713.07C82.3678 709.026 102.43 690.485 116.06 670.442C126.803 654.654 118.984 614.739 121.336 595.595Z" fill="#017842"/>
</g>
<path fill-rule="evenodd" clip-rule="evenodd" d="M213.028 512.182C173.306 545.933 200.069 620.817 200.069 620.817L106.33 601.423C86.7726 617.377 74.4658 648.07 80.9602 682.959C80.9602 682.959 187.822 709.382 228.256 696.156C298.257 673.247 307.835 551.747 307.835 551.747C307.835 551.747 230.718 497.159 213.028 512.182Z" fill="black"/>
<mask id="mask10_418_2769" style="mask-type:luminance" maskUnits="userSpaceOnUse" x="79" y="509" width="229" height="191">
<path d="M213.029 512.181C173.307 545.932 200.07 620.816 200.07 620.816L106.331 601.422C86.7735 617.376 74.4668 648.069 80.9612 682.958C80.9612 682.958 187.823 709.381 228.257 696.155C298.258 673.246 307.836 551.746 307.836 551.746C307.836 551.746 230.719 497.158 213.029 512.181Z" fill="white"/>
</mask>
<g mask="url(#mask10_418_2769)">
<path fill-rule="evenodd" clip-rule="evenodd" d="M181.756 543.286C181.437 560.169 182.315 578.878 193.022 592.777C207.573 611.676 241.197 622.795 236.528 651.963C235.983 655.355 234.932 658.627 233.296 661.646C225.728 675.665 208.251 681.105 193.394 682.209C164.439 684.377 128.461 677.274 109.229 653.4C102.153 644.621 97.2316 634.061 93.7469 623.394C92.7361 620.295 91.8448 617.102 91.2595 613.884C91.1664 613.378 91.1399 610.692 90.6478 610.439C89.6502 609.921 87.6019 613.791 87.3093 614.296C84.6093 618.991 82.5478 624.072 80.7523 629.179C74.0887 648.226 71.6414 668.855 79.9409 687.915C97.3114 727.843 148.412 731.447 185.387 723.919C232.126 714.409 283.452 692.171 309.388 650.021C316.73 638.091 321.332 624.75 324.471 611.144C326.879 600.704 328.182 590.178 327.384 579.459C324.91 546.514 306.622 514.865 273.903 504.052C264.313 500.881 254.284 499.643 244.203 499.805C219.969 500.196 195.789 509.377 178.365 526.417C168.815 535.77 181.597 529.596 181.756 543.286Z" fill="black"/>
</g>
<path fill-rule="evenodd" clip-rule="evenodd" d="M265.357 399.023C244.103 391.515 186.778 382.999 170.059 416.676C158.155 440.676 190.635 541.382 190.635 541.382C207.952 550.514 262.83 583.417 280.173 541.281C301.241 490.106 316.191 488.638 317.069 478.761C317.069 478.761 302.492 472.342 297.571 461.72C287.702 440.396 286.598 406.53 265.357 399.023Z" fill="#00FF96"/>
<mask id="mask11_418_2769" style="mask-type:luminance" maskUnits="userSpaceOnUse" x="167" y="392" width="151" height="171">
<path d="M265.358 399.023C244.104 391.515 186.779 382.999 170.06 416.676C158.156 440.676 190.636 541.382 190.636 541.382C207.953 550.514 262.831 583.417 280.174 541.281C301.242 490.106 316.192 488.638 317.07 478.761C317.07 478.761 302.493 472.342 297.571 461.72C287.703 440.396 286.599 406.53 265.358 399.023Z" fill="white"/>
</mask>
<g mask="url(#mask11_418_2769)">
<path fill-rule="evenodd" clip-rule="evenodd" d="M309.133 531.464C301.991 532.284 294.011 529.704 287.467 527.164C270.496 520.573 257.767 509.58 248.217 494.099C242.897 485.487 237.856 475.612 229.411 469.607C227.602 468.322 221.63 464.408 219.808 467.344C217.892 470.403 219.276 476.333 219.568 479.596C220.513 490.305 221.563 501.008 222.667 511.703C223.301 517.936 224.082 524.154 225.008 530.35C225.7 534.91 226.471 539.457 227.389 543.975C231.938 566.278 241.235 597.66 269.019 597.774C272.491 597.789 275.896 597.217 279.168 596.086C283.996 594.424 288.504 591.691 292.481 588.507C298.573 583.621 304.319 537.569 309.133 531.464Z" fill="#05DC7B"/>
</g>
<path fill-rule="evenodd" clip-rule="evenodd" d="M404.371 494.734L275.192 556.241C275.192 556.241 221.201 442.303 192.417 419.208C174.85 405.11 141.668 426.985 155.224 484.503C168.79 542.048 213.406 617.539 254.59 626.241C298.235 635.45 420.065 519.793 420.065 519.793C420.065 519.793 436.23 515.623 437.667 511.255C441.167 500.594 430.384 494.138 430.384 494.138C430.384 494.138 450.474 474.497 447.899 471.061C441.042 461.914 404.371 494.734 404.371 494.734Z" fill="#8C8C8C"/>
<mask id="mask12_418_2769" style="mask-type:luminance" maskUnits="userSpaceOnUse" x="152" y="415" width="297" height="212">
<path d="M404.372 494.735L275.193 556.242C275.193 556.242 221.202 442.304 192.418 419.209C174.851 405.111 141.669 426.986 155.225 484.504C168.791 542.049 213.407 617.54 254.591 626.242C298.236 635.451 420.066 519.794 420.066 519.794C420.066 519.794 436.23 515.624 437.668 511.256C441.168 500.595 430.385 494.139 430.385 494.139C430.385 494.139 450.475 474.498 447.9 471.062C441.043 461.915 404.372 494.735 404.372 494.735Z" fill="white"/>
</mask>
<g mask="url(#mask12_418_2769)">
<path fill-rule="evenodd" clip-rule="evenodd" d="M440.808 495.897C440.542 505.487 431.006 513.037 421.909 512.542C419.275 512.399 416.695 511.73 414.38 510.466C413.968 510.237 410.922 508.155 410.67 508.673C410.124 509.76 411.215 511.929 411.454 513.007C412.093 515.866 412.306 518.592 410.563 521.103C407.597 525.356 402.836 528.145 398.686 531.082C390.945 536.571 383.005 541.768 375.264 547.269C352.321 563.579 329.391 581.242 303.162 591.991C288.585 597.97 272.199 601.536 256.943 595.872C219.595 582.011 206.747 543.849 198.168 508.349C187.262 501.657 164.492 495.873 153.998 505.336C147.268 511.399 146.017 521.661 146.177 530.203C146.669 555.928 160.049 582.137 177.978 600.05C188.938 611.003 202.385 618.797 216.723 624.49C276.468 648.244 346.455 627.562 395.999 590.007C423.132 569.439 439.864 531.738 440.808 495.897ZM442.152 467.743C445.211 471.864 441.261 477.13 438.747 480.338C438.122 481.136 437.47 481.908 436.805 482.671C436.02 483.573 435.222 484.468 434.398 485.34C433.334 486.487 432.23 487.605 431.072 488.676C429.463 490.182 427.734 491.616 425.832 492.743C425.22 493.106 424.595 493.448 423.957 493.753C423.89 493.781 422.919 494.238 423.039 494.337C423.425 494.62 424.728 494.273 425.154 494.23C427.082 494.035 429.091 494.285 431.033 494.131C433.214 493.956 435.369 493.375 437.364 492.363C439.465 491.299 441.154 489.428 442.644 487.655C445.637 484.073 448.164 479.986 449.76 475.582C451.223 471.542 448.403 466.83 442.152 467.743Z" fill="#B5B5B5"/>
<path fill-rule="evenodd" clip-rule="evenodd" d="M152.063 520.917C161.959 512.157 179.209 511.326 191.14 514.799C199.453 517.217 208.523 521.972 217.421 521.014C229.046 519.763 229.711 506.604 238.449 501.512C241.681 499.634 245.445 500.118 248.943 499.192C255.288 497.506 257.815 492.253 259.025 486.281C265.449 454.366 232.797 421.592 201.221 409.175C186.059 403.215 168.409 399.829 156.226 413.319C148.964 421.369 146.264 432.69 144.881 443.151C142.327 462.444 149.576 501.734 152.063 520.917Z" fill="#00FF96"/>
</g>
<path fill-rule="evenodd" clip-rule="evenodd" d="M436.937 295.058C435.913 287.792 432.987 284.74 432.987 284.74C432.987 284.74 459.601 281.734 466.224 295.674C473.659 311.31 461.277 316.64 450.237 316.64C441.166 316.64 438.254 313.016 437.495 305.59C437.083 306.114 436.618 306.63 436.112 307.13C432.162 311.064 427.201 312.496 425.033 310.323C422.878 308.151 424.328 303.193 428.278 299.257C431.111 296.44 434.463 294.907 436.937 295.058Z" fill="#8C8C8C"/>
<mask id="mask13_418_2769" style="mask-type:luminance" maskUnits="userSpaceOnUse" x="424" y="284" width="45" height="33">
<path d="M436.936 295.058C435.912 287.792 432.986 284.74 432.986 284.74C432.986 284.74 459.6 281.734 466.223 295.674C473.658 311.31 461.276 316.64 450.236 316.64C441.165 316.64 438.253 313.016 437.494 305.59C437.082 306.114 436.617 306.63 436.111 307.13C432.161 311.064 427.2 312.496 425.032 310.323C422.877 308.151 424.327 303.193 428.277 299.257C431.11 296.44 434.462 294.907 436.936 295.058Z" fill="white"/>
</mask>
<g mask="url(#mask13_418_2769)">
<path fill-rule="evenodd" clip-rule="evenodd" d="M469.057 299.252C468.951 300.53 468.459 301.784 467.926 302.936C464.974 309.386 458.257 311.729 451.607 312.148C448.481 312.346 444.957 312.148 442.336 310.229C440.328 308.762 439.158 306.596 438.533 304.234C438.32 303.463 438.173 302.669 438.08 301.876C438.067 301.794 438 300.686 437.947 300.69C437.708 300.71 437.455 301.585 437.375 301.755C436.91 302.82 436.378 303.869 435.7 304.822C433.851 307.428 430.592 309.3 427.413 309.589C426.136 309.705 424.753 309.693 423.782 308.746C424.101 317.013 432.561 321.238 439.596 322.758C451.82 325.394 468.325 323.294 472.728 309.554C473.366 307.577 469.137 301.323 469.057 299.252Z" fill="#B5B5B5"/>
</g>
<path fill-rule="evenodd" clip-rule="evenodd" d="M208.816 371.763L182.638 380.752C183.478 387.948 182.908 394.903 180.287 404.567C215.846 431.009 227.908 433.123 214.53 391.011C207.112 384.747 208.992 380.728 208.816 371.763Z" fill="#8C8C8C"/>
<mask id="mask14_418_2769" style="mask-type:luminance" maskUnits="userSpaceOnUse" x="180" y="371" width="40" height="53">
<path d="M208.817 371.763L182.639 380.752C183.479 387.948 182.909 394.903 180.288 404.567C215.847 431.009 227.909 433.123 214.531 391.011C207.113 384.747 208.993 380.728 208.817 371.763Z" fill="white"/>
</mask>
<g mask="url(#mask14_418_2769)">
<path fill-rule="evenodd" clip-rule="evenodd" d="M180.175 385.01C182.421 389.976 187.712 394.01 192.011 397.312C195.271 399.81 198.506 401.777 202.503 402.942C205.925 403.938 209.634 404.478 213.058 403.482C220.226 401.389 223.019 393.606 220.257 387.089C216.203 377.509 203.679 372.762 193.702 372.426C186.757 372.192 183.423 379.032 180.175 385.01Z" fill="#B5B5B5"/>
</g>
<path fill-rule="evenodd" clip-rule="evenodd" d="M196.719 338.096C209.474 338.096 219.835 351.457 219.835 367.914C219.835 384.371 219.276 397.733 206.521 397.733C193.753 397.733 173.603 384.371 173.603 367.914C173.603 351.457 183.964 338.096 196.719 338.096Z" fill="#8C8C8C"/>
<mask id="mask15_418_2769" style="mask-type:luminance" maskUnits="userSpaceOnUse" x="173" y="338" width="47" height="60">
<path d="M196.718 338.096C209.473 338.096 219.834 351.457 219.834 367.914C219.834 384.371 219.275 397.733 206.52 397.733C193.752 397.733 173.602 384.371 173.602 367.914C173.602 351.457 183.963 338.096 196.718 338.096Z" fill="white"/>
</mask>
<g mask="url(#mask15_418_2769)">
<path fill-rule="evenodd" clip-rule="evenodd" d="M228.279 355.821C226.443 358.823 222.626 362.496 219.155 363.237C214.513 364.227 209.672 362.905 205.402 365.556C202.569 367.305 201.106 370.054 200.281 373.169C199.949 374.412 199.696 375.676 199.337 376.914C199.271 377.154 199.005 378.077 198.592 377.752C197.941 377.24 197.847 375.85 197.768 375.121C197.488 372.807 197.488 370.431 197.648 368.111C198.22 359.88 202.263 352.013 211.041 350.551C212.864 350.249 226.457 355.605 228.279 355.821Z" fill="#B5B5B5"/>
</g>
<path fill-rule="evenodd" clip-rule="evenodd" d="M204.151 360.619C206.532 358.748 210.642 360.497 213.767 359.907C220.112 358.709 226.735 356.725 230.845 351.348C234.303 346.827 235.78 340.698 236.205 335.122C236.538 330.897 235.979 326.397 234.011 322.6C230.739 316.288 222.133 312.709 216.175 317.797C212.73 320.746 211.174 325.506 209.977 329.726C209.312 328.991 207.569 328.782 206.665 328.589C202.967 327.798 199.097 327.833 195.373 328.273C192.087 328.661 188.909 329.304 185.903 330.716C175.183 335.749 170.275 346.899 171.618 358.312C170.567 358.104 169.557 359.921 169.131 360.621C167.269 363.7 166.537 367.067 166.657 370.66C166.883 377.301 172.163 382.794 178.375 384.516C182.671 385.705 187.539 385.039 189.654 380.744C190.385 379.253 190.624 377.597 190.797 375.961C187.392 374.334 186.435 369.024 187.233 365.747C187.698 363.89 188.869 361.552 191.117 361.682C193.298 361.81 194.628 363.834 195.306 365.691C196.956 370.205 194.827 374.892 196.224 379.292C196.783 381.014 198.618 382.336 199.616 380.156C200.254 378.741 200.041 377.026 199.895 375.529C199.749 374.066 199.509 372.607 199.429 371.137C199.256 368.247 201.757 362.492 204.151 360.619Z" fill="black"/>
</svg>
